<?xml version="1.0" encoding="UTF-8" standalone="no"?>
<svg width="193px" height="193px" viewBox="0 0 193 193" version="1.1" xmlns="http://www.w3.org/2000/svg" xmlns:xlink="http://www.w3.org/1999/xlink">
    <!-- Generator: Sketch 3.7.1 (28215) - http://www.bohemiancoding.com/sketch -->
    <title>Group Copy</title>
    <desc>Created with Sketch.</desc>
    <defs>
        <polygon id="path-1" points="96.3732921 192.693871 192.74635 192.693871 192.74635 0.113315778 96.3732921 0.113315778 0.000234713041 0.113315778 0.000234713041 192.693871"></polygon>
    </defs>
    <g id="Page-1" stroke="none" stroke-width="1" fill="none" fill-rule="evenodd">
        <g id="Schedule" transform="translate(-1110.000000, -1100.000000)">
            <g id="wed" transform="translate(129.000000, 1014.000000)">
                <g id="Group-Copy" transform="translate(981.000000, 86.000000)">
                    <g id="Page-1">
                        <g id="Group-3" transform="translate(0.000000, 0.281413)">
                            <mask id="mask-2" fill="white">
                                <use xlink:href="#path-1"></use>
                            </mask>
                            <g id="Clip-2"></g>
                            <path d="M173.24193,101.58629 C168.359899,105.010153 163.313569,108.551271 161.881819,113.945027 C160.379656,119.526393 163.031913,125.225014 165.590285,130.736026 C166.57608,132.870077 168.172129,136.29394 168.430313,138.005871 C166.810793,138.662502 162.961499,138.990818 160.567426,139.201878 C154.558772,139.717803 148.338877,140.280629 144.301813,144.314221 C140.288219,148.324362 139.724908,154.538907 139.20854,160.542393 C138.997298,162.934406 138.645228,166.756938 138.011503,168.398516 C136.251155,168.117103 133.082529,166.663134 130.711927,165.560931 C126.346265,163.520684 121.792832,161.433535 117.286341,161.433535 C116.112776,161.433535 114.986154,161.574242 113.929945,161.855655 C108.508074,163.286173 104.987378,168.328163 101.560568,173.205995 C100.105347,175.293144 97.7816877,178.623202 96.3734095,179.6316 C94.9886025,178.623202 92.6414721,175.293144 91.1862513,173.205995 C87.7594409,168.328163 84.2387452,163.286173 78.816874,161.855655 C77.7606653,161.574242 76.6340427,161.433535 75.4604775,161.433535 C70.9539871,161.433535 66.4240254,163.520684 62.0348915,165.560931 C59.6877611,166.639682 56.5426064,168.093652 54.7353159,168.398516 C54.1015907,166.756938 53.7495212,162.934406 53.5382794,160.542393 C53.0219107,154.538907 52.4820707,148.324362 48.4450064,144.29077 C44.4079421,140.280629 38.1880465,139.717803 32.1793927,139.201878 C29.7853197,138.990818 25.9360258,138.662502 24.3165058,138.005871 C24.5746901,136.29394 26.1707388,132.870077 27.1565336,130.736026 C29.7149057,125.225014 32.3671631,119.526393 30.8884709,113.945027 C29.4332501,108.52782 24.3869197,105.010153 19.5048884,101.58629 C17.4394137,100.155772 14.0830172,97.8106603 13.0972224,96.4035934 C14.0830172,95.0199776 17.4394137,92.6748661 19.5048884,91.220897 C24.3869197,87.7970342 29.4332501,84.279367 30.8884709,78.8621595 C32.3671631,73.3042453 29.7149057,67.6056243 27.1565336,62.0946124 C26.1707388,59.9371098 24.5746901,56.513247 24.3165058,54.8013156 C25.9360258,54.1681355 29.7853197,53.8398199 32.1793927,53.6287599 C38.1880465,53.0893842 44.4079421,52.5500086 48.4450064,48.5164168 C52.4820707,44.4828251 53.0219107,38.2917308 53.5382794,32.2882454 C53.7495212,29.8727805 54.1015907,26.0502488 54.7353159,24.4086708 C56.4956638,24.6900842 59.6642898,26.1675044 62.0348915,27.2697068 C66.4005541,29.2865027 70.9539871,31.397103 75.4604775,31.397103 C76.6340427,31.397103 77.7606653,31.2563963 78.816874,30.9749829 C84.2387452,29.5210138 87.7594409,24.4790241 91.1862513,19.6011922 C92.6414721,17.5374941 94.9886025,14.2074358 96.3734095,13.1990379 C97.7816877,14.2074358 100.105347,17.5374941 101.560568,19.6011922 C104.987378,24.4790241 108.508074,29.5210138 113.929945,30.9749829 C114.986154,31.2563963 116.112776,31.397103 117.286341,31.397103 C121.792832,31.397103 126.346265,29.2865027 130.735399,27.2697068 C133.082529,26.1675044 136.204213,24.7135353 138.011503,24.4321219 C138.645228,26.0736999 138.997298,29.8727805 139.20854,32.2882454 C139.724908,38.2917308 140.288219,44.4828251 144.301813,48.5164168 C148.338877,52.5500086 154.558772,53.0893842 160.567426,53.6287599 C162.961499,53.8398199 166.810793,54.1681355 168.430313,54.8013156 C168.172129,56.513247 166.57608,59.9371098 165.590285,62.0946124 C163.031913,67.6056243 160.379656,73.3042453 161.881819,78.8621595 C163.313569,84.279367 168.359899,87.7970342 173.24193,91.220897 C175.307405,92.6748661 178.663802,95.0199776 179.673068,96.4035934 C178.663802,97.8106603 175.307405,100.155772 173.24193,101.58629 M180.658863,112.162743 C186.338918,108.199504 192.746584,103.69689 192.746584,96.4035934 C192.746584,89.1102967 186.315447,84.6076826 180.658863,80.6444442 C178.546445,79.167024 175.072692,76.7515591 174.368553,75.4851989 C174.298139,74.0077787 176.175844,69.9741869 177.302466,67.535271 C180.165965,61.3676278 183.405005,54.3791956 179.837367,48.2584546 C176.246257,42.0439091 168.524198,41.3638268 161.694049,40.7540978 C159.065263,40.5195867 154.6996,40.1443688 153.455621,39.3704821 C152.681068,38.127573 152.305527,33.7656656 152.070814,31.1391407 C151.484032,24.3383174 150.803364,16.5994495 144.583468,13.011429 C142.799649,11.9795799 140.781117,11.4636554 138.551343,11.4636554 C134.115267,11.4636554 129.632247,13.5508046 125.290056,15.5441494 C122.520442,16.8339607 119.070161,18.4286365 117.286341,18.4755387 C116.042362,17.7485542 113.624818,14.3012403 112.146126,12.214091 C108.179475,6.53892125 103.672985,0.113315778 96.3734095,0.113315778 C89.0738339,0.113315778 84.5673435,6.53892125 80.6006931,12.1906399 C79.0985296,14.3715936 76.5636288,17.9830653 75.4604775,18.4755387 C73.7940149,18.4755387 70.2967906,16.8574118 67.4567628,15.5441494 C63.1380428,13.5508046 58.6315524,11.4636554 54.1954759,11.4636554 C51.9891734,11.4636554 49.9471699,11.9795799 48.1633508,13.011429 C41.9669265,16.5994495 41.2862587,24.3383174 40.6760048,31.1391407 C40.4412917,33.7656656 40.0657509,38.127573 39.2911978,39.3704821 C38.0472187,40.1443688 33.6815561,40.5195867 31.0527701,40.7540978 C24.2226206,41.3638268 16.5005615,42.0439091 12.909452,48.2350035 C9.34181376,54.3791956 12.5808537,61.3676278 15.4443528,67.535271 C16.5709754,69.9741869 18.4486798,74.0077787 18.4017372,75.4851989 C17.6741267,76.7515591 14.2003737,79.167024 12.0879563,80.6444442 C6.43137204,84.6076826 0.000234713041,89.1102967 0.000234713041,96.4035934 C0.000234713041,103.69689 6.43137204,108.199504 12.0879563,112.162743 C14.2003737,113.640163 17.6741267,116.079079 18.4017372,117.321988 C18.4486798,118.799408 16.5709754,122.856451 15.4443528,125.295367 C12.5808537,131.46301 9.34181376,138.427991 12.909452,144.572183 C16.5005615,150.786729 24.2226206,151.466811 31.0527701,152.053089 C33.6815561,152.2876 38.0472187,152.686269 39.2911978,153.436705 C40.0657509,154.679614 40.4412917,159.041521 40.6760048,161.668046 C41.2862587,168.49232 41.9669265,176.207737 48.1633508,179.819209 C49.9471699,180.827607 51.9891734,181.366983 54.1954759,181.366983 C58.6315524,181.366983 63.1380428,179.279833 67.4567628,177.263037 C70.249848,175.973226 73.6766584,174.37855 75.4604775,174.331648 C76.7044566,175.058633 79.1454722,178.529398 80.6006931,180.616547 C84.5673435,186.291717 89.0738339,192.693871 96.3734095,192.693871 C103.672985,192.693871 108.179475,186.291717 112.146126,180.616547 C113.671761,178.459044 116.206661,174.847573 117.286341,174.331648 C118.952804,174.331648 122.614327,176.020128 125.290056,177.263037 C129.632247,179.279833 134.115267,181.366983 138.551343,181.366983 C140.781117,181.366983 142.799649,180.827607 144.583468,179.819209 C150.803364,176.207737 151.484032,168.49232 152.070814,161.668046 C152.305527,159.041521 152.681068,154.679614 153.455621,153.436705 C154.6996,152.686269 159.065263,152.2876 161.694049,152.053089 C168.524198,151.466811 176.246257,150.786729 179.837367,144.572183 C183.405005,138.427991 180.165965,131.46301 177.302466,125.295367 C176.175844,122.856451 174.298139,118.799408 174.368553,117.321988 C175.072692,116.079079 178.546445,113.640163 180.658863,112.162743" id="Fill-1" fill="#000095" mask="url(#mask-2)"></path>
                        </g>
                        <path d="M162.881585,114.226441 C161.379421,119.807806 164.031678,125.506427 166.590051,131.017439 C167.575845,133.15149 169.171894,136.575353 169.430078,138.287285 C167.810558,138.943916 163.961265,139.272231 161.567192,139.483291 C155.558538,139.999216 149.338642,140.562043 145.301578,144.595634 C141.287985,148.605775 140.724673,154.820321 140.208305,160.823806 C139.997063,163.21582 139.644993,167.038351 139.011268,168.679929 C137.25092,168.398516 134.082294,166.944547 131.711693,165.842344 C127.34603,163.802097 122.792597,161.714948 118.286107,161.714948 C117.112542,161.714948 115.985919,161.855655 114.92971,162.137068 C109.507839,163.567586 105.987143,168.609576 102.560333,173.487408 C101.105112,175.574557 98.781453,178.904615 97.3731748,179.913013 C95.9883678,178.904615 93.6412374,175.574557 92.1860165,173.487408 C88.7592061,168.609576 85.2385105,163.567586 79.8166393,162.137068 C78.7604306,161.855655 77.633808,161.714948 76.4602428,161.714948 C71.9537524,161.714948 67.4237907,163.802097 63.0346568,165.842344 C60.6875264,166.921096 57.5423716,168.375065 55.7350812,168.679929 C55.101356,167.038351 54.7492865,163.21582 54.5380447,160.823806 C54.021676,154.820321 53.481836,148.605775 49.4447717,144.572183 C45.4077074,140.562043 39.1878118,139.999216 33.179158,139.483291 C30.7850849,139.272231 26.9357911,138.943916 25.3162711,138.287285 C25.5744554,136.575353 27.1705041,133.15149 28.1562989,131.017439 C30.714671,125.506427 33.3669284,119.807806 31.8882362,114.226441 C30.4330154,108.809233 25.386685,105.291566 20.5046537,101.867703 C18.439179,100.437185 15.0827825,98.0920737 14.0969877,96.6850068 C15.0827825,95.301391 18.439179,92.9562795 20.5046537,91.5023104 C25.386685,88.0784476 30.4330154,84.5607804 31.8882362,79.1435729 C33.3669284,73.5856586 30.714671,67.8870377 28.1562989,62.3760257 C27.1705041,60.2185232 25.5744554,56.7946604 25.3162711,55.082729 C26.9357911,54.4495489 30.7850849,54.1212333 33.179158,53.9101733 C39.1878118,53.3707976 45.4077074,52.831422 49.4447717,48.7978302 C53.481836,44.7642385 54.021676,38.5731441 54.5380447,32.5696587 C54.7492865,30.1541939 55.101356,26.3316622 55.7350812,24.6900842 C57.495429,24.9714975 60.6640551,26.4489178 63.0346568,27.5511202 C67.4003194,29.567916 71.9537524,31.6785164 76.4602428,31.6785164 C77.633808,31.6785164 78.7604306,31.5378097 79.8166393,31.2563963 C85.2385105,29.8024272 88.7592061,24.7604375 92.1860165,19.8826056 C93.6412374,17.8189075 95.9883678,14.4888492 97.3731748,13.4804512 C98.781453,14.4888492 101.105112,17.8189075 102.560333,19.8826056 C105.987143,24.7604375 109.507839,29.8024272 114.92971,31.2563963 C115.985919,31.5378097 117.112542,31.6785164 118.286107,31.6785164 C122.792597,31.6785164 127.34603,29.567916 131.735164,27.5511202 C134.082294,26.4489178 137.203978,24.9949486 139.011268,24.7135353 C139.644993,26.3551133 139.997063,30.1541939 140.208305,32.5696587 C140.724673,38.5731441 141.287985,44.7642385 145.301578,48.7978302 C149.338642,52.831422 155.558538,53.3707976 161.567192,53.9101733 C163.961265,54.1212333 167.810558,54.4495489 169.430078,55.082729 C169.171894,56.7946604 167.575845,60.2185232 166.590051,62.3760257 C164.031678,67.8870377 161.379421,73.5856586 162.881585,79.1435729 C164.313334,84.5607804 169.359665,88.0784476 174.241696,91.5023104 C176.307171,92.9562795 179.663567,95.301391 180.672833,96.6850068 C179.663567,98.0920737 164.313334,108.832684 162.881585,114.226441 Z" id="Fill-4" fill="#FFFFFF"></path>
                    </g>
                    <path d="M47.4544941,96.1704941 C46.9752,95.5953412 46.5917647,94.5089412 46.5917647,93.6462118 C46.5917647,92.0485647 47.9018353,90.7384941 50.1704941,90.7384941 C52.4072,90.7384941 53.8770353,91.7290353 53.8770353,93.7420706 C53.8770353,97.0971294 48.2852706,99.6853176 41,103.711388 L41,107.417929 L59.3409882,107.417929 L59.3409882,103.391859 L47.9018353,103.391859 C54.3243765,100.675859 59.5327059,97.9279059 59.5327059,93.6142588 C59.5327059,89.7479529 56.3693647,87 50.2024471,87 C44.5467765,87 41.1597647,89.9077176 41.1597647,93.7420706 C41.1597647,95.4036235 41.7029647,97.0971294 42.5017882,97.9598588 L47.4544941,96.1704941 Z M73.0168471,107.801365 C78.6086118,107.801365 82.7944471,105.596612 82.7944471,100.611953 C82.7944471,96.4580706 79.8867294,94.0935529 75.2216,94.0935529 C73.0168471,94.0935529 71.0677176,94.7006588 69.5659294,95.8509647 L70.2369412,91.4095059 L80.7175059,91.4095059 L80.7175059,87.3834353 L66.0511059,87.3834353 L64.5493176,97.9598588 L68.5434353,99.0782118 C69.6298353,98.0237647 71.2594353,97.3847059 73.0168471,97.3847059 C75.1257412,97.3847059 77.0748706,98.3432941 77.0748706,100.707812 C77.0748706,102.688894 75.7008941,104.062871 73.1127059,104.062871 C70.3647529,104.062871 68.5434353,102.529129 68.2558588,100.484141 L63.3031529,101.570541 C63.6226824,105.372941 67.1694588,107.801365 73.0168471,107.801365 L73.0168471,107.801365 Z M93.0832941,107.417929 L93.0832941,102.784753 L87.3317647,102.784753 L87.3317647,107.417929 L93.0832941,107.417929 Z M118.613694,97.4166588 C118.613694,90.7384941 114.715435,87 108.101176,87 C101.518871,87 97.6206118,90.7384941 97.6206118,97.4166588 C97.6206118,104.094824 101.518871,107.801365 108.101176,107.801365 C114.715435,107.801365 118.613694,104.094824 118.613694,97.4166588 L118.613694,97.4166588 Z M103.308235,97.4166588 C103.308235,93.0391059 104.969788,90.8024 108.101176,90.8024 C111.264518,90.8024 112.926071,93.0391059 112.926071,97.4166588 C112.926071,101.794212 111.264518,103.998965 108.101176,103.998965 C104.969788,103.998965 103.308235,101.794212 103.308235,97.4166588 L103.308235,97.4166588 Z M131.842212,107.801365 C137.433976,107.801365 141.619812,105.596612 141.619812,100.611953 C141.619812,96.4580706 138.712094,94.0935529 134.046965,94.0935529 C131.842212,94.0935529 129.893082,94.7006588 128.391294,95.8509647 L129.062306,91.4095059 L139.542871,91.4095059 L139.542871,87.3834353 L124.876471,87.3834353 L123.374682,97.9598588 L127.3688,99.0782118 C128.4552,98.0237647 130.0848,97.3847059 131.842212,97.3847059 C133.951106,97.3847059 135.900235,98.3432941 135.900235,100.707812 C135.900235,102.688894 134.526259,104.062871 131.938071,104.062871 C129.190118,104.062871 127.3688,102.529129 127.081224,100.484141 L122.128518,101.570541 C122.448047,105.372941 125.994824,107.801365 131.842212,107.801365 L131.842212,107.801365 Z M151.908659,107.417929 L151.908659,102.784753 L146.157129,102.784753 L146.157129,107.417929 L151.908659,107.417929 Z" id="25.05." fill="#000095"></path>
                </g>
            </g>
        </g>
    </g>
</svg>