<?xml version="1.0" encoding="UTF-8" standalone="no"?>
<svg width="193px" height="193px" viewBox="0 0 193 193" version="1.1" xmlns="http://www.w3.org/2000/svg" xmlns:xlink="http://www.w3.org/1999/xlink">
    <!-- Generator: Sketch 3.7.1 (28215) - http://www.bohemiancoding.com/sketch -->
    <title>Group Copy 3</title>
    <desc>Created with Sketch.</desc>
    <defs>
        <polygon id="path-1" points="96.3732921 192.693871 192.74635 192.693871 192.74635 0.113315778 96.3732921 0.113315778 0.000234713041 0.113315778 0.000234713041 192.693871"></polygon>
    </defs>
    <g id="Page-1" stroke="none" stroke-width="1" fill="none" fill-rule="evenodd">
        <g id="Schedule" transform="translate(-1103.000000, -3589.000000)">
            <g id="wed-copy-2" transform="translate(122.000000, 3554.000000)">
                <g id="Group-Copy-3" transform="translate(981.000000, 35.000000)">
                    <g id="Page-1">
                        <g id="Group-3" transform="translate(0.000000, 0.281413)">
                            <mask id="mask-2" fill="white">
                                <use xlink:href="#path-1"></use>
                            </mask>
                            <g id="Clip-2"></g>
                            <path d="M173.24193,101.58629 C168.359899,105.010153 163.313569,108.551271 161.881819,113.945027 C160.379656,119.526393 163.031913,125.225014 165.590285,130.736026 C166.57608,132.870077 168.172129,136.29394 168.430313,138.005871 C166.810793,138.662502 162.961499,138.990818 160.567426,139.201878 C154.558772,139.717803 148.338877,140.280629 144.301813,144.314221 C140.288219,148.324362 139.724908,154.538907 139.20854,160.542393 C138.997298,162.934406 138.645228,166.756938 138.011503,168.398516 C136.251155,168.117103 133.082529,166.663134 130.711927,165.560931 C126.346265,163.520684 121.792832,161.433535 117.286341,161.433535 C116.112776,161.433535 114.986154,161.574242 113.929945,161.855655 C108.508074,163.286173 104.987378,168.328163 101.560568,173.205995 C100.105347,175.293144 97.7816877,178.623202 96.3734095,179.6316 C94.9886025,178.623202 92.6414721,175.293144 91.1862513,173.205995 C87.7594409,168.328163 84.2387452,163.286173 78.816874,161.855655 C77.7606653,161.574242 76.6340427,161.433535 75.4604775,161.433535 C70.9539871,161.433535 66.4240254,163.520684 62.0348915,165.560931 C59.6877611,166.639682 56.5426064,168.093652 54.7353159,168.398516 C54.1015907,166.756938 53.7495212,162.934406 53.5382794,160.542393 C53.0219107,154.538907 52.4820707,148.324362 48.4450064,144.29077 C44.4079421,140.280629 38.1880465,139.717803 32.1793927,139.201878 C29.7853197,138.990818 25.9360258,138.662502 24.3165058,138.005871 C24.5746901,136.29394 26.1707388,132.870077 27.1565336,130.736026 C29.7149057,125.225014 32.3671631,119.526393 30.8884709,113.945027 C29.4332501,108.52782 24.3869197,105.010153 19.5048884,101.58629 C17.4394137,100.155772 14.0830172,97.8106603 13.0972224,96.4035934 C14.0830172,95.0199776 17.4394137,92.6748661 19.5048884,91.220897 C24.3869197,87.7970342 29.4332501,84.279367 30.8884709,78.8621595 C32.3671631,73.3042453 29.7149057,67.6056243 27.1565336,62.0946124 C26.1707388,59.9371098 24.5746901,56.513247 24.3165058,54.8013156 C25.9360258,54.1681355 29.7853197,53.8398199 32.1793927,53.6287599 C38.1880465,53.0893842 44.4079421,52.5500086 48.4450064,48.5164168 C52.4820707,44.4828251 53.0219107,38.2917308 53.5382794,32.2882454 C53.7495212,29.8727805 54.1015907,26.0502488 54.7353159,24.4086708 C56.4956638,24.6900842 59.6642898,26.1675044 62.0348915,27.2697068 C66.4005541,29.2865027 70.9539871,31.397103 75.4604775,31.397103 C76.6340427,31.397103 77.7606653,31.2563963 78.816874,30.9749829 C84.2387452,29.5210138 87.7594409,24.4790241 91.1862513,19.6011922 C92.6414721,17.5374941 94.9886025,14.2074358 96.3734095,13.1990379 C97.7816877,14.2074358 100.105347,17.5374941 101.560568,19.6011922 C104.987378,24.4790241 108.508074,29.5210138 113.929945,30.9749829 C114.986154,31.2563963 116.112776,31.397103 117.286341,31.397103 C121.792832,31.397103 126.346265,29.2865027 130.735399,27.2697068 C133.082529,26.1675044 136.204213,24.7135353 138.011503,24.4321219 C138.645228,26.0736999 138.997298,29.8727805 139.20854,32.2882454 C139.724908,38.2917308 140.288219,44.4828251 144.301813,48.5164168 C148.338877,52.5500086 154.558772,53.0893842 160.567426,53.6287599 C162.961499,53.8398199 166.810793,54.1681355 168.430313,54.8013156 C168.172129,56.513247 166.57608,59.9371098 165.590285,62.0946124 C163.031913,67.6056243 160.379656,73.3042453 161.881819,78.8621595 C163.313569,84.279367 168.359899,87.7970342 173.24193,91.220897 C175.307405,92.6748661 178.663802,95.0199776 179.673068,96.4035934 C178.663802,97.8106603 175.307405,100.155772 173.24193,101.58629 M180.658863,112.162743 C186.338918,108.199504 192.746584,103.69689 192.746584,96.4035934 C192.746584,89.1102967 186.315447,84.6076826 180.658863,80.6444442 C178.546445,79.167024 175.072692,76.7515591 174.368553,75.4851989 C174.298139,74.0077787 176.175844,69.9741869 177.302466,67.535271 C180.165965,61.3676278 183.405005,54.3791956 179.837367,48.2584546 C176.246257,42.0439091 168.524198,41.3638268 161.694049,40.7540978 C159.065263,40.5195867 154.6996,40.1443688 153.455621,39.3704821 C152.681068,38.127573 152.305527,33.7656656 152.070814,31.1391407 C151.484032,24.3383174 150.803364,16.5994495 144.583468,13.011429 C142.799649,11.9795799 140.781117,11.4636554 138.551343,11.4636554 C134.115267,11.4636554 129.632247,13.5508046 125.290056,15.5441494 C122.520442,16.8339607 119.070161,18.4286365 117.286341,18.4755387 C116.042362,17.7485542 113.624818,14.3012403 112.146126,12.214091 C108.179475,6.53892125 103.672985,0.113315778 96.3734095,0.113315778 C89.0738339,0.113315778 84.5673435,6.53892125 80.6006931,12.1906399 C79.0985296,14.3715936 76.5636288,17.9830653 75.4604775,18.4755387 C73.7940149,18.4755387 70.2967906,16.8574118 67.4567628,15.5441494 C63.1380428,13.5508046 58.6315524,11.4636554 54.1954759,11.4636554 C51.9891734,11.4636554 49.9471699,11.9795799 48.1633508,13.011429 C41.9669265,16.5994495 41.2862587,24.3383174 40.6760048,31.1391407 C40.4412917,33.7656656 40.0657509,38.127573 39.2911978,39.3704821 C38.0472187,40.1443688 33.6815561,40.5195867 31.0527701,40.7540978 C24.2226206,41.3638268 16.5005615,42.0439091 12.909452,48.2350035 C9.34181376,54.3791956 12.5808537,61.3676278 15.4443528,67.535271 C16.5709754,69.9741869 18.4486798,74.0077787 18.4017372,75.4851989 C17.6741267,76.7515591 14.2003737,79.167024 12.0879563,80.6444442 C6.43137204,84.6076826 0.000234713041,89.1102967 0.000234713041,96.4035934 C0.000234713041,103.69689 6.43137204,108.199504 12.0879563,112.162743 C14.2003737,113.640163 17.6741267,116.079079 18.4017372,117.321988 C18.4486798,118.799408 16.5709754,122.856451 15.4443528,125.295367 C12.5808537,131.46301 9.34181376,138.427991 12.909452,144.572183 C16.5005615,150.786729 24.2226206,151.466811 31.0527701,152.053089 C33.6815561,152.2876 38.0472187,152.686269 39.2911978,153.436705 C40.0657509,154.679614 40.4412917,159.041521 40.6760048,161.668046 C41.2862587,168.49232 41.9669265,176.207737 48.1633508,179.819209 C49.9471699,180.827607 51.9891734,181.366983 54.1954759,181.366983 C58.6315524,181.366983 63.1380428,179.279833 67.4567628,177.263037 C70.249848,175.973226 73.6766584,174.37855 75.4604775,174.331648 C76.7044566,175.058633 79.1454722,178.529398 80.6006931,180.616547 C84.5673435,186.291717 89.0738339,192.693871 96.3734095,192.693871 C103.672985,192.693871 108.179475,186.291717 112.146126,180.616547 C113.671761,178.459044 116.206661,174.847573 117.286341,174.331648 C118.952804,174.331648 122.614327,176.020128 125.290056,177.263037 C129.632247,179.279833 134.115267,181.366983 138.551343,181.366983 C140.781117,181.366983 142.799649,180.827607 144.583468,179.819209 C150.803364,176.207737 151.484032,168.49232 152.070814,161.668046 C152.305527,159.041521 152.681068,154.679614 153.455621,153.436705 C154.6996,152.686269 159.065263,152.2876 161.694049,152.053089 C168.524198,151.466811 176.246257,150.786729 179.837367,144.572183 C183.405005,138.427991 180.165965,131.46301 177.302466,125.295367 C176.175844,122.856451 174.298139,118.799408 174.368553,117.321988 C175.072692,116.079079 178.546445,113.640163 180.658863,112.162743" id="Fill-1" fill="#000095" mask="url(#mask-2)"></path>
                        </g>
                    </g>
                    <path d="M48.3128471,95.7760941 C47.8335529,95.2009412 47.4501176,94.1145412 47.4501176,93.2518118 C47.4501176,91.6541647 48.7601882,90.3440941 51.0288471,90.3440941 C53.2655529,90.3440941 54.7353882,91.3346353 54.7353882,93.3476706 C54.7353882,96.7027294 49.1436235,99.2909176 41.8583529,103.316988 L41.8583529,107.023529 L60.1993412,107.023529 L60.1993412,102.997459 L48.7601882,102.997459 C55.1827294,100.281459 60.3910588,97.5335059 60.3910588,93.2198588 C60.3910588,89.3535529 57.2277176,86.6056 51.0608,86.6056 C45.4051294,86.6056 42.0181176,89.5133176 42.0181176,93.3476706 C42.0181176,95.0092235 42.5613176,96.7027294 43.3601412,97.5654588 L48.3128471,95.7760941 Z M73.2680941,107.023529 C73.2361412,106.640094 73.2361412,106.288612 73.2361412,105.905176 C73.2361412,100.057788 76.2397176,94.1145412 80.4255529,90.6955765 L80.4255529,86.9890353 L63.3626824,86.9890353 L63.3626824,91.0151059 L76.048,91.0151059 C70.9035765,94.4979765 67.1970353,100.1856 67.1970353,106.831812 L67.1970353,107.023529 L73.2680941,107.023529 Z M89.9155765,107.023529 L89.9155765,102.390353 L84.1640471,102.390353 L84.1640471,107.023529 L89.9155765,107.023529 Z M115.445976,97.0222588 C115.445976,90.3440941 111.547718,86.6056 104.933459,86.6056 C98.3511529,86.6056 94.4528941,90.3440941 94.4528941,97.0222588 C94.4528941,103.700424 98.3511529,107.406965 104.933459,107.406965 C111.547718,107.406965 115.445976,103.700424 115.445976,97.0222588 L115.445976,97.0222588 Z M100.140518,97.0222588 C100.140518,92.6447059 101.802071,90.408 104.933459,90.408 C108.0968,90.408 109.758353,92.6447059 109.758353,97.0222588 C109.758353,101.399812 108.0968,103.604565 104.933459,103.604565 C101.802071,103.604565 100.140518,101.399812 100.140518,97.0222588 L100.140518,97.0222588 Z M128.674494,107.406965 C134.266259,107.406965 138.452094,105.202212 138.452094,100.217553 C138.452094,96.0636706 135.544376,93.6991529 130.879247,93.6991529 C128.674494,93.6991529 126.725365,94.3062588 125.223576,95.4565647 L125.894588,91.0151059 L136.375153,91.0151059 L136.375153,86.9890353 L121.708753,86.9890353 L120.206965,97.5654588 L124.201082,98.6838118 C125.287482,97.6293647 126.917082,96.9903059 128.674494,96.9903059 C130.783388,96.9903059 132.732518,97.9488941 132.732518,100.313412 C132.732518,102.294494 131.358541,103.668471 128.770353,103.668471 C126.0224,103.668471 124.201082,102.134729 123.913506,100.089741 L118.9608,101.176141 C119.280329,104.978541 122.827106,107.406965 128.674494,107.406965 L128.674494,107.406965 Z M148.740941,107.023529 L148.740941,102.390353 L142.989412,102.390353 L142.989412,107.023529 L148.740941,107.023529 Z" id="27.05." fill="#000095"></path>
                </g>
            </g>
        </g>
    </g>
</svg>