<?xml version="1.0" encoding="UTF-8" standalone="no"?>
<svg width="970px" height="670px" viewBox="0 0 970 670" version="1.1" xmlns="http://www.w3.org/2000/svg" xmlns:xlink="http://www.w3.org/1999/xlink">
    <!-- Generator: Sketch 3.7.1 (28215) - http://www.bohemiancoding.com/sketch -->
    <title>Group 15</title>
    <desc>Created with Sketch.</desc>
    <defs>
        <polygon id="path-1" points="0 669.35791 969.779376 669.35791 969.779376 0.0299428101 0 0.0299428101"></polygon>
    </defs>
    <g id="Page-1" stroke="none" stroke-width="1" fill="none" fill-rule="evenodd">
        <g id="Home_page" transform="translate(-234.000000, -3723.000000)">
            <g id="Group-15" transform="translate(234.000000, 3723.000000)">
                <g id="Group-2">
                    <g id="Group">
                        <g id="Page-1">
                            <polygon id="Fill-1" fill="#000095" points="1.53239106 17.7226049 1.53239106 209.681877 184.917095 209.681877 184.917095 166.209 56.0174064 166.209 56.0174064 133.148055 151.549923 133.148055 151.549923 93.9501943 56.0174064 93.9501943 56.0174064 61.1954821 178.780182 61.1954821 178.780182 17.7226049"></polygon>
                            <polygon id="Fill-2" fill="#000095" points="269.771872 63.9466819 303.445278 107.431808 334.0686 63.9466819 394.67828 63.9466819 331.300252 136.817954 394.67828 209.676978 333.762367 209.676978 300.689179 166.510334 269.465639 209.676978 209.456176 209.676978 272.527971 136.817954 209.456176 63.9466819"></polygon>
                            <g id="Group-16" transform="translate(0.000000, 0.237365)">
                                <path d="M601.389381,126.787249 L601.389381,209.445738 L548.423283,209.445738 L548.423283,132.287199 C548.423283,109.331952 538.62382,93.7263037 517.199743,93.7263037 C500.663149,93.7263037 489.026287,103.525769 481.982922,118.825184 L481.982922,209.445738 L429.029073,209.445738 L429.029073,4.31843374 L445.859651,4.31843374 C459.02768,4.31843374 472.501942,2.78726731 481.982922,0.0311677433 L481.982922,101.063653 C489.344769,78.0961568 506.48158,60.0406423 536.480187,60.0406423 C570.153592,60.0406423 601.389381,78.4146394 601.389381,126.787249 L601.389381,126.787249 Z" id="Fill-3" fill="#000095"></path>
                                <mask id="mask-2" fill="white">
                                    <use xlink:href="#path-1"></use>
                                </mask>
                                <g id="Clip-6"></g>
                                <path d="M650.439369,209.444513 L703.393219,209.444513 L703.393219,69.2264159 L650.439369,69.2264159 L650.439369,209.444513 Z M650.439369,40.7589698 L703.393219,40.7589698 L703.393219,4.3172088 L650.439369,4.3172088 L650.439369,40.7589698 Z" id="Fill-5" fill="#000095" mask="url(#mask-2)"></path>
                                <path d="M881.916164,135.351982 C881.916164,111.478035 869.054369,93.7287536 846.40536,93.7287536 C829.868765,93.7287536 817.313203,104.128436 809.657373,118.815384 L809.657373,157.707012 C817.00697,169.037643 827.4189,179.449575 846.40536,179.449575 C869.054369,179.449575 881.916164,158.613462 881.916164,135.351982 M801.695309,165.97531 L790.058446,209.448187 L756.691274,209.448187 L756.691274,4.3208836 L773.840335,4.3208836 C790.683162,4.3208836 802.920242,1.87101732 809.657373,0.0336176095 L809.657373,101.066103 C815.169571,77.4861401 834.756248,60.0430922 866.29827,60.0430922 C903.034008,60.0430922 936.40118,84.835739 936.40118,135.351982 C936.40118,180.980741 909.771139,213.122987 863.542171,213.122987 C824.650551,213.122987 808.126207,189.849257 801.695309,165.97531" id="Fill-7" fill="#000095" mask="url(#mask-2)"></path>
                                <path d="M0,576.924455 L52.9538492,576.924455 L52.9538492,436.706358 L0,436.706358 L0,576.924455 Z M0,408.238912 L52.9538492,408.238912 L52.9538492,371.797151 L0,371.797151 L0,408.238912 Z" id="Fill-8" fill="#000095" mask="url(#mask-2)"></path>
                                <path d="M232.091711,565.597498 C217.392516,575.078481 198.112073,580.602929 177.594447,580.602929 C141.471175,580.602929 117.278751,566.516198 117.278751,525.493187 L117.278751,469.158512 L88.1988435,469.158512 L88.1988435,435.178867 L106.266604,435.178867 C117.891217,435.178867 121.872249,432.422767 121.872249,420.479669 L121.872249,415.579936 L170.244849,369.657193 L170.244849,435.178867 L220.148615,435.178867 L220.148615,469.158512 L170.244849,469.158512 L170.244849,521.818388 C170.244849,538.661218 178.80713,543.548702 191.987408,543.548702 C203.612021,543.548702 214.942651,538.661218 220.148615,534.986419 L232.091711,565.597498 Z" id="Fill-9" fill="#000095" mask="url(#mask-2)"></path>
                                <path d="M265.504206,576.924455 L318.458055,576.924455 L318.458055,436.706358 L265.504206,436.706358 L265.504206,576.924455 Z M265.504206,408.238912 L318.458055,408.238912 L318.458055,371.797151 L265.504206,371.797151 L265.504206,408.238912 Z" id="Fill-10" fill="#000095" mask="url(#mask-2)"></path>
                                <path d="M496.050052,504.064207 C496.050052,480.178011 482.882023,460.57908 455.333282,460.57908 C427.772292,460.57908 414.910497,480.178011 414.910497,504.064207 C414.910497,527.938154 428.078525,547.537084 455.627266,547.537084 C483.188256,547.537084 496.050052,527.938154 496.050052,504.064207 M550.535067,504.064207 C550.535067,559.467933 504.930815,580.598029 455.627266,580.598029 C406.348216,580.598029 360.425481,559.467933 360.425481,504.064207 C360.425481,448.648231 406.029733,427.518135 455.333282,427.518135 C504.612333,427.518135 550.535067,448.648231 550.535067,504.064207" id="Fill-11" fill="#000095" mask="url(#mask-2)"></path>
                                <path d="M711.944475,576.92568 L711.944475,499.767141 C711.944475,476.811894 702.145012,461.206246 680.720936,461.206246 C665.727757,461.206246 653.772412,469.474545 645.504115,482.93656 L645.504115,576.92568 L592.550266,576.92568 L592.550266,431.195384 L625.917438,431.195384 L637.5543,474.668261 C645.210131,446.507048 662.665425,427.520585 700.00138,427.520585 C733.674785,427.520585 764.910574,445.894582 764.910574,494.267192 L764.910574,576.92568 L711.944475,576.92568 Z" id="Fill-12" fill="#000095" mask="url(#mask-2)"></path>
                                <path d="M886.497413,580.598029 C854.661407,580.598029 822.506919,572.329731 804.145175,558.255249 L823.744101,527.63192 C836.89988,538.350085 862.011005,548.149551 888.653295,548.149551 C910.077372,548.149551 916.814503,543.556051 916.814503,537.125152 C916.814503,530.694253 908.239972,527.019454 892.328094,524.263354 L862.929704,519.069638 C834.450015,513.863672 808.43244,502.827024 808.43244,475.584511 C808.43244,449.248449 830.481232,427.518135 884.966247,427.518135 C918.651902,427.518135 944.669477,436.092667 959.981138,446.504598 L941.313161,476.209227 C929.982531,467.022229 906.708806,459.966614 884.966247,459.966614 C872.104452,459.966614 858.336206,462.110247 858.336206,470.684779 C858.336206,477.740394 865.367321,480.484244 879.147816,482.93411 L915.58957,489.365009 C947.119343,494.877208 969.780601,507.420524 969.780601,532.22542 C969.780601,559.467933 946.506876,580.598029 886.497413,580.598029" id="Fill-13" fill="#000095" mask="url(#mask-2)"></path>
                                <polygon id="Fill-14" fill="#000095" mask="url(#mask-2)" points="0.673713095 304.364582 969.362899 304.364582 969.362899 267.616587 0.673713095 267.616587"></polygon>
                                <polygon id="Fill-15" fill="#000095" mask="url(#mask-2)" points="0.673713095 669.35791 969.362899 669.35791 969.362899 632.609916 0.673713095 632.609916"></polygon>
                            </g>
                        </g>
                    </g>
                </g>
            </g>
        </g>
    </g>
</svg>