<?xml version="1.0" encoding="utf-8"?>
<!-- Generator: Avocode 2.6.0 - http://avocode.com -->
<svg height="40" width="40" xmlns:xlink="http://www.w3.org/1999/xlink" xmlns="http://www.w3.org/2000/svg" viewBox="0 0 40 40">
    <path fill="#e7e7e7" fill-rule="evenodd" d="M 20 0 C 8.95 0 0 8.95 0 20 C 0 31.05 8.95 40 20 40 C 31.05 40 40 31.05 40 20 C 40 8.95 31.05 0 20 0 L 20 0 Z M 25 13.33 L 22.75 13.33 C 21.85 13.33 21.67 13.7 21.67 14.63 L 21.67 16.67 L 25 16.67 L 24.65 20 L 21.67 20 L 21.67 31.67 L 16.67 31.67 L 16.67 20 L 13.33 20 L 13.33 16.67 L 16.67 16.67 L 16.67 12.82 C 16.67 9.87 18.22 8.33 21.72 8.33 L 25 8.33 L 25 13.33 L 25 13.33 Z M 25 13.33" />
</svg>