<?xml version="1.0" encoding="UTF-8" standalone="no"?>
<svg width="78px" height="78px" viewBox="0 0 78 78" version="1.1" xmlns="http://www.w3.org/2000/svg" xmlns:xlink="http://www.w3.org/1999/xlink">
    <!-- Generator: Sketch 3.7.1 (28215) - http://www.bohemiancoding.com/sketch -->
    <title>Page 1</title>
    <desc>Created with Sketch.</desc>
    <defs>
        <polygon id="path-1" points="0 0.8415 0 77.9995 77.1589 77.9995 77.1589 0.8415 6.77626358e-21 0.8415"></polygon>
    </defs>
    <g id="Page-1" stroke="none" stroke-width="1" fill="none" fill-rule="evenodd">
        <g id="Home_page" transform="translate(-1170.000000, -4807.000000)">
            <g id="Page-1" transform="translate(1170.000000, 4806.000000)">
                <g id="Group-3" transform="translate(0.000000, 0.158900)">
                    <mask id="mask-2" fill="white">
                        <use xlink:href="#path-1"></use>
                    </mask>
                    <g id="Clip-2"></g>
                    <path d="M77.1589,39.4205 C77.1589,60.7275 59.8859,77.9995 38.5799,77.9995 C17.2729,77.9995 -0.0001,60.7275 -0.0001,39.4205 C-0.0001,18.1135 17.2729,0.8415 38.5799,0.8415 C59.8859,0.8415 77.1589,18.1135 77.1589,39.4205" id="Fill-1" fill="#000095" mask="url(#mask-2)"></path>
                </g>
                <path d="M52.2041,34.2587 L48.2671,30.4187 L64.2531,30.4187 C64.8291,31.1387 65.0201,31.6177 65.0201,32.4827 C65.0201,34.6427 63.5331,35.3627 60.3641,35.3627 L51.7711,35.3627 C52.0591,34.9307 52.0591,34.7867 52.2041,34.2587 L52.2041,34.2587 Z M44.1401,40.7867 C42.6021,40.7867 41.9781,39.8267 41.9781,39.0597 C41.9781,38.1957 42.4111,37.6667 43.2271,37.2357 C44.6191,37.7627 45.8191,38.0507 46.9721,38.0507 C48.6511,38.0507 49.9471,37.8117 50.8591,36.7067 L56.5241,36.7067 C56.7651,37.1387 56.9081,37.9547 56.9081,38.4357 C56.9081,39.4907 56.5241,40.7867 54.4601,40.7867 L44.1401,40.7867 Z M43.8991,50.1487 C42.7951,50.1487 41.8831,49.4277 41.8831,48.4677 C41.8831,47.1237 42.7951,46.5477 44.2351,46.5477 L53.1161,46.5477 C53.2601,46.8837 53.3561,47.2197 53.3561,47.6037 C53.3561,49.6677 52.2521,50.1487 49.8991,50.1487 L43.8991,50.1487 Z M43.7551,45.3477 C42.4591,45.3477 41.8831,44.5307 41.8831,43.6677 C41.8831,42.9467 42.3631,41.9877 43.5631,41.9877 L54.9401,41.9877 C55.0841,42.2277 55.1321,42.6587 55.1321,42.8997 C55.1321,43.8117 55.0361,45.3477 52.3481,45.3477 L43.7551,45.3477 Z M36.0741,52.4517 C29.6421,52.4517 27.5781,50.0517 25.8021,48.6597 L18.1691,48.6597 C17.6411,45.1557 17.6411,37.6667 18.1691,33.4907 L25.3691,33.4907 C26.8571,31.7147 28.5381,29.9867 30.4101,28.5457 C31.9461,27.3467 33.0021,26.6257 35.7861,26.6257 L39.5791,26.6257 C41.7871,27.8257 43.8031,28.9787 45.6751,30.3697 L50.3321,34.6427 C50.1401,35.7947 49.1801,36.7067 47.5961,36.7067 C44.0911,36.7067 40.5391,33.9707 37.8981,31.7147 L36.6981,31.7147 C35.4981,33.8267 33.1461,37.8597 29.0171,39.1077 C29.1621,39.8267 29.1621,39.8267 29.5941,40.4507 C33.4821,39.4907 35.9781,35.9397 37.5621,33.6827 C38.7631,34.5467 40.0581,35.8427 41.6421,36.6117 C40.8751,37.1387 40.3471,37.9067 40.3471,39.0117 C40.3471,40.1627 40.8751,40.8837 41.8831,41.3157 C40.7301,41.7957 40.2031,42.7557 40.2031,43.7157 C40.2031,44.8197 40.6831,45.5397 41.5951,46.0197 C40.7301,46.4997 40.3471,47.3167 40.3471,48.5157 C40.3471,49.9077 41.4511,51.2037 42.9391,51.2037 L46.6831,51.2037 C46.4431,52.2607 45.4831,52.4517 36.0741,52.4517 L36.0741,52.4517 Z" id="Fill-4" fill="#FFFFFF"></path>
            </g>
        </g>
    </g>
</svg>