<?xml version="1.0" encoding="utf-8"?>
<!-- Generator: Avocode 2.6.0 - http://avocode.com -->
<svg height="40" width="40" xmlns:xlink="http://www.w3.org/1999/xlink" xmlns="http://www.w3.org/2000/svg" viewBox="0 0 40 40">
    <path fill="#e7e7e7" fill-rule="evenodd" d="M 29.72 10.99 L 29.72 13.45 C 29.72 13.85 29.4 14.17 29 14.17 L 26.56 14.17 C 26.16 14.17 25.83 13.85 25.83 13.45 L 25.83 10.99 C 25.83 10.6 26.16 10.28 26.56 10.28 L 29 10.28 C 29.4 10.28 29.72 10.6 29.72 10.99 L 29.72 10.99 Z M 20 23.49 C 21.87 23.49 23.38 21.98 23.38 20.11 C 23.38 18.24 21.87 16.73 20 16.73 C 18.13 16.73 16.62 18.24 16.62 20.11 C 16.62 21.98 18.13 23.49 20 23.49 L 20 23.49 Z M 40 20 C 40 31.05 31.05 40 20 40 C 8.95 40 0 31.05 0 20 C 0 8.95 8.95 0 20 0 C 31.05 0 40 8.95 40 20 L 40 20 Z M 31.67 17.08 L 25.08 17.08 C 25.61 17.97 25.93 19 25.93 20.1 C 25.93 23.38 23.27 26.05 19.99 26.05 C 16.71 26.05 14.05 23.38 14.05 20.1 C 14.05 19 14.37 17.97 14.9 17.08 L 8.33 17.08 L 8.33 27.08 C 8.33 29.61 10.45 31.67 12.99 31.67 L 27.08 31.67 C 29.61 31.67 31.67 29.61 31.67 27.08 L 31.67 17.08 L 31.67 17.08 Z M 19.99 24.68 C 22.51 24.68 24.56 22.63 24.56 20.1 C 24.56 18.73 23.95 17.51 23 16.67 C 22.66 16.37 22.28 16.13 21.87 15.94 C 21.29 15.68 20.66 15.53 19.98 15.53 C 19.31 15.53 18.67 15.68 18.1 15.94 C 17.69 16.13 17.31 16.37 16.97 16.67 C 16.01 17.51 15.41 18.74 15.41 20.1 C 15.41 22.63 17.46 24.68 19.99 24.68 L 19.99 24.68 Z M 31.67 12.92 C 31.67 10.39 29.61 8.33 27.08 8.33 L 15.14 8.33 L 15.14 13.19 L 14.17 13.19 L 14.17 8.33 L 13.2 8.33 L 13.2 13.19 L 12.22 13.19 L 12.22 8.41 C 11.89 8.46 11.56 8.55 11.25 8.67 L 11.25 13.19 L 10.28 13.19 L 10.28 9.21 C 9.11 10.04 8.33 11.39 8.33 12.92 L 8.33 16.11 L 15.6 16.11 C 16.73 14.86 18.32 14.17 19.99 14.17 C 21.66 14.17 23.24 14.87 24.37 16.11 L 31.67 16.11 L 31.67 12.92 L 31.67 12.92 Z M 31.67 12.92" />
</svg>