<?xml version="1.0" encoding="UTF-8" standalone="no"?>
<svg width="968px" height="665px" viewBox="0 0 968 665" version="1.1" xmlns="http://www.w3.org/2000/svg" xmlns:xlink="http://www.w3.org/1999/xlink">
    <!-- Generator: Sketch 3.7.1 (28215) - http://www.bohemiancoding.com/sketch -->
    <title>Page 1 Copy 2</title>
    <desc>Created with Sketch.</desc>
    <defs>
        <polygon id="path-1" points="144.456492 0.519600957 0.822784341 0.519600957 0.822784341 211.216117 144.456492 211.216117 144.456492 0.519600957"></polygon>
        <polygon id="path-3" points="0 664.578171 967.617019 664.578171 967.617019 0.519600957 0 0.519600957"></polygon>
    </defs>
    <g id="Page-1" stroke="none" stroke-width="1" fill="none" fill-rule="evenodd">
        <g id="Home_page" transform="translate(-236.000000, -2582.000000)">
            <g id="Page-1-Copy-2" transform="translate(236.000000, 2581.000000)">
                <polygon id="Fill-1" fill="#000095" points="1.52963113 16.3377095 1.52963113 208.073534 163.492013 208.073534 163.492013 163.121877 55.9165157 163.121877 55.9165157 16.3377095"></polygon>
                <g id="Group-20" transform="translate(0.000000, 0.527938)">
                    <path d="M246.968789,121.611339 L321.848573,121.611339 C321.848573,105.412103 312.066759,89.5065081 287.000862,89.5065081 C262.558554,89.5065081 250.025606,102.353334 246.968789,121.611339 L246.968789,121.611339 Z M246.675334,142.716839 C250.649196,165.033612 267.449461,176.656931 291.586087,176.656931 C316.651985,176.656931 333.158795,164.727735 340.482928,150.963278 L370.134051,173.598163 C359.435193,194.091909 327.962207,211.208776 287.612225,211.208776 C238.10402,211.208776 192.581904,190.115511 192.581904,134.764042 C192.581904,78.8008195 237.186975,58.3070728 288.235816,58.3070728 C338.037475,58.3070728 374.719277,81.2478341 374.719277,129.258259 C374.719277,133.540535 374.413595,138.128687 373.802232,142.716839 L246.675334,142.716839 L246.675334,142.716839 Z" id="Fill-2" fill="#000095"></path>
                    <path d="M502.212992,176.656931 C523.904164,176.656931 540.11752,164.727735 547.441653,150.963278 L577.70414,173.598163 C567.298735,190.421388 540.716656,211.208776 497.933448,211.208776 C447.81388,211.208776 405.336354,188.892004 405.336354,134.764042 C405.336354,79.4125732 451.176379,58.3070728 500.378902,58.3070728 C540.716656,58.3070728 565.770327,79.1066963 576.175731,95.9176862 L545.913245,119.164324 C538.589112,105.412103 522.987119,92.8589181 502.518674,92.8589181 C473.173232,92.8589181 459.723238,111.823281 459.723238,134.764042 C459.723238,158.01068 474.408186,176.656931 502.212992,176.656931" id="Fill-4" fill="#000095"></path>
                    <g id="Group-8" transform="translate(600.141286, 0.000000)">
                        <mask id="mask-2" fill="white">
                            <use xlink:href="#path-1"></use>
                        </mask>
                        <g id="Clip-7"></g>
                        <path d="M144.456492,196.228153 C129.783772,205.698099 110.538053,211.216117 90.0573805,211.216117 C53.9991695,211.216117 29.8503167,197.145784 29.8503167,156.170525 L29.8503167,99.9014259 L0.822784341,99.9014259 L0.822784341,65.9613343 L18.8580035,65.9613343 C30.4616801,65.9613343 34.4355419,63.2084429 34.4355419,51.279247 L34.4355419,46.3852179 L82.7210202,0.515930435 L82.7210202,65.9613343 L132.534907,65.9613343 L132.534907,99.9014259 L82.7210202,99.9014259 L82.7210202,152.500003 C82.7210202,169.323228 91.26788,174.205022 104.42442,174.205022 C116.028096,174.205022 127.338318,169.323228 132.534907,165.652707 L144.456492,196.228153 Z" id="Fill-6" fill="#000095" mask="url(#mask-2)"></path>
                    </g>
                    <path d="M909.355313,207.543148 L897.739409,164.120875 C891.638003,189.496416 873.297102,211.21367 836.627528,211.21367 C804.22527,211.21367 773.657102,192.873296 773.657102,144.556994 L773.657102,61.9824886 L826.540032,61.9824886 L826.540032,139.038976 C826.540032,161.979738 836.003937,177.579455 856.178928,177.579455 C870.545967,177.579455 881.856189,169.320781 889.791686,155.862201 L889.791686,61.9824886 L942.674616,61.9824886 L942.674616,207.543148 L909.355313,207.543148 Z" id="Fill-9" fill="#000095"></path>
                    <path d="M0,574.595329 L0,429.034669 L33.3070759,429.034669 L45.5343431,473.68045 C50.1195683,444.928029 63.2638806,425.364147 94.4311847,425.364147 C101.461863,425.364147 110.314405,426.587655 116.73372,428.117039 L113.371222,470.621681 C107.868951,469.092297 99.615546,466.95116 91.973504,466.95116 C70.8936953,466.95116 58.9721098,472.456942 52.8584762,479.797986 L52.8584762,574.595329 L0,574.595329 Z" id="Fill-11" fill="#000095"></path>
                    <path d="M191.026596,488.66352 L265.90638,488.66352 C265.90638,472.464283 256.124566,456.558689 231.058669,456.558689 C206.616361,456.558689 194.083413,469.405515 191.026596,488.66352 L191.026596,488.66352 Z M190.733141,509.76902 C194.694776,532.085793 211.507268,543.709112 235.643894,543.709112 C260.709792,543.709112 277.216602,531.779916 284.540735,518.015459 L314.191858,540.650343 C303.493,561.14409 272.020014,578.260957 231.670032,578.260957 C182.161827,578.260957 136.639711,557.167692 136.639711,501.816223 C136.639711,445.853 181.244782,425.359253 232.293623,425.359253 C282.095282,425.359253 318.777084,448.300015 318.777084,496.31044 C318.777084,500.592715 318.471402,505.180868 317.860039,509.76902 L190.733141,509.76902 Z" id="Fill-13" fill="#000095"></path>
                    <path d="M433.125264,578.263404 C401.346597,578.263404 369.25002,570.00473 350.921347,555.946631 L370.484974,525.35895 C383.617059,536.064638 408.682957,545.852696 435.277263,545.852696 C456.662753,545.852696 463.38775,541.264544 463.38775,534.841131 C463.38775,528.417718 454.828663,524.747196 438.945443,521.994305 L409.600002,516.806634 C381.171606,511.606728 355.20089,500.582927 355.20089,473.372126 C355.20089,447.066719 377.209971,425.3617 431.596856,425.3617 C465.22184,425.3617 491.192556,433.926251 506.47664,444.326063 L487.842285,473.996114 C476.532063,464.81981 453.300255,457.772408 431.596856,457.772408 C418.758225,457.772408 405.014777,459.913546 405.014777,468.478097 C405.014777,475.525499 412.033228,478.266155 425.788904,480.713169 L462.165024,487.136582 C493.638009,492.642365 516.258454,505.17108 516.258454,529.947102 C516.258454,557.157903 493.026646,578.263404 433.125264,578.263404" id="Fill-15" fill="#000095"></path>
                    <mask id="mask-4" fill="white">
                        <use xlink:href="#path-3"></use>
                    </mask>
                    <g id="Clip-18"></g>
                    <polygon id="Fill-17" fill="#000095" mask="url(#mask-4)" points="0.672499697 294.503928 967.617019 294.503928 967.617019 257.798709 0.672499697 257.798709"></polygon>
                    <polygon id="Fill-19" fill="#000095" mask="url(#mask-4)" points="0.66027243 664.578171 517.506858 664.578171 517.506858 627.872953 0.66027243 627.872953"></polygon>
                </g>
            </g>
        </g>
    </g>
</svg>