<?xml version="1.0" encoding="UTF-8" standalone="no"?>
<svg width="83px" height="84px" viewBox="0 0 83 84" version="1.1" xmlns="http://www.w3.org/2000/svg" xmlns:xlink="http://www.w3.org/1999/xlink">
    <!-- Generator: Sketch 3.7.2 (28276) - http://www.bohemiancoding.com/sketch -->
    <title>preloader</title>
    <desc>Created with Sketch.</desc>
    <defs>
        <polygon id="path-1" points="69.7474586 69.3260356 69.7474586 0.25011009 7.73480665e-05 0.25011009 7.73480665e-05 69.3260356"></polygon>
    </defs>
    <g id="Page-1" stroke="none" stroke-width="1" fill="none" fill-rule="evenodd">
        <g id="preloader">
            <g id="Page-1" transform="translate(7.000000, 7.000000)">
                <polygon id="Fill-1" fill="#FFFFFF" points="33.1866519 48.1199173 27.804 24.5547975 27.9749392 48.1199173 25.3265414 48.1199173 25.3265414 21.5929271 29.555547 21.5929271 34.9378122 45.5391489 40.3204641 21.5929271 44.5498564 21.5929271 44.5498564 48.1199173 41.9010718 48.1199173 42.0723978 24.5547975 36.6897459 48.1199173"></polygon>
                <g id="Group-4" transform="translate(0.000000, 0.132907)">
                    <mask id="mask-2" fill="white">
                        <use xlink:href="#path-1"></use>
                    </mask>
                    <g id="Clip-3"></g>
                    <path d="M62.6895249,36.6470266 C60.922895,37.8749791 59.0967072,39.1454464 58.5784751,41.0800652 C58.035105,43.082095 58.9949945,45.1258736 59.9208508,47.1026242 C60.2774254,47.8682752 60.8548287,49.0962276 60.9484199,49.7102039 C60.3625083,49.9457593 58.9694696,50.0633455 58.1031713,50.1391829 C55.9289171,50.3241801 53.6780884,50.52603 52.2169834,51.9730682 C50.7647735,53.411297 50.5609613,55.6404558 50.3741657,57.7937773 C50.2975912,58.6517353 50.1703536,60.0229361 49.9410166,60.6116332 C49.3040552,60.5105167 48.1573702,59.9892306 47.2995801,59.5939571 C45.7197459,58.8620116 44.072232,58.1135965 42.4413481,58.1135965 C42.0167072,58.1135965 41.6090829,58.1637717 41.2269834,58.2648882 C39.264663,58.7777479 37.9907403,60.5863541 36.7508508,62.3359757 C36.2241105,63.0847739 35.383337,64.2790208 34.8736133,64.6409719 C34.3727845,64.2790208 33.523116,63.0847739 32.9967624,62.3359757 C31.7568729,60.5863541 30.4825635,58.7777479 28.5206298,58.2648882 C28.1385304,58.1637717 27.7309061,58.1135965 27.3058785,58.1135965 C25.6753812,58.1135965 24.0363757,58.8620116 22.4480331,59.5939571 C21.5987514,59.9808043 20.4605746,60.5024734 19.8065967,60.6116332 C19.5772597,60.0229361 19.4496354,58.6517353 19.3734475,57.7937773 C19.1866519,55.6404558 18.9909613,53.411297 17.5302431,51.9646418 C16.0695249,50.52603 13.8186961,50.3241801 11.644442,50.1391829 C10.7781436,50.0633455 9.38510497,49.9457593 8.79919337,49.7102039 C8.89239779,49.0962276 9.47018785,47.8682752 9.82676243,47.1026242 C10.7526188,45.1258736 11.7125083,43.082095 11.1772597,41.0800652 C10.6509061,39.13702 8.82471823,37.8749791 7.0580884,36.6470266 C6.31051934,36.1337839 5.0961547,35.2926786 4.73919337,34.7882452 C5.0961547,34.2918552 6.31051934,33.4507499 7.0580884,32.9290808 C8.82471823,31.7011283 10.6509061,30.4390874 11.1772597,28.4960422 C11.7125083,26.5028218 10.7526188,24.4586602 9.82676243,22.4819096 C9.47018785,21.7082152 8.89239779,20.4798798 8.79919337,19.8659036 C9.38510497,19.6387745 10.7781436,19.5211883 11.644442,19.4453509 C13.8186961,19.2519273 16.0695249,19.0585038 17.5302431,17.6114656 C18.9909613,16.1648104 19.1866519,13.944078 19.3734475,11.7907565 C19.4496354,10.9243721 19.5772597,9.55317129 19.8065967,8.96447419 C20.443558,9.06559067 21.5902431,9.59530316 22.4480331,9.99057668 C24.0278674,10.7140958 25.6753812,11.4713203 27.3058785,11.4713203 C27.7309061,11.4713203 28.1385304,11.4207621 28.5206298,11.3196456 C30.4825635,10.7983595 31.7568729,8.98975331 32.9967624,7.24013173 C33.523116,6.4997599 34.3727845,5.30551295 34.8736133,4.94394492 C35.383337,5.30551295 36.2241105,6.4997599 36.7508508,7.24013173 C37.9907403,8.98975331 39.264663,10.7983595 41.2269834,11.3196456 C41.6090829,11.4207621 42.0167072,11.4713203 42.4413481,11.4713203 C44.072232,11.4713203 45.7197459,10.7140958 47.3080884,9.99057668 C48.1573702,9.59530316 49.2870387,9.07401704 49.9410166,8.97290056 C50.1703536,9.56159766 50.2975912,10.9243721 50.3741657,11.7907565 C50.5609613,13.944078 50.7647735,16.1648104 52.2169834,17.6114656 C53.6780884,19.0585038 55.9289171,19.2519273 58.1031713,19.4453509 C58.9694696,19.5211883 60.3625083,19.6387745 60.9484199,19.8659036 C60.8548287,20.4798798 60.2774254,21.7082152 59.9208508,22.4819096 C58.9949945,24.4586602 58.035105,26.5028218 58.5784751,28.4960422 C59.0967072,30.4390874 60.922895,31.7011283 62.6895249,32.9290808 C63.4367072,33.4507499 64.6514586,34.2918552 65.0165414,34.7882452 C64.6514586,35.2926786 63.4367072,36.1337839 62.6895249,36.6470266 M65.3735028,40.4408099 C67.4286409,39.0190508 69.7475359,37.4042512 69.7475359,34.7882452 C69.7475359,32.1722392 67.4201326,30.5570566 65.3735028,29.1352976 C64.6089171,28.6055851 63.352011,27.7392007 63.0971492,27.2849425 C63.0716243,26.754847 63.7511271,25.3081919 64.1587514,24.4333811 C65.1952155,22.221075 66.3670387,19.7146118 65.0760994,17.5191585 C63.7766519,15.2899997 60.982453,15.0460178 58.5107956,14.8273151 C57.5594144,14.7434344 55.9795801,14.6086124 55.5294144,14.3313082 C55.2494144,13.8850934 55.1132818,12.320852 55.0285856,11.3786302 C54.8162652,8.93919506 54.5699116,6.16347099 52.3190829,4.87653393 C51.6736133,4.50653952 50.9430608,4.3211593 50.1363204,4.3211593 C48.5309613,4.3211593 46.9089724,5.0699575 45.3376464,5.78505021 C44.3352155,6.24773473 43.0868177,6.81957908 42.4413481,6.83643183 C41.9911823,6.57559726 41.1163757,5.33921844 40.5811271,4.59042024 C39.1459337,2.55506799 37.5150497,0.250071788 34.8736133,0.250071788 C32.2321768,0.250071788 30.6016796,2.55506799 29.1660994,4.58199387 C28.6227293,5.36449756 27.7053812,6.659861 27.3058785,6.83643183 C26.7029503,6.83643183 25.4375359,6.25577808 24.4099669,5.78505021 C22.8471492,5.0699575 21.2162652,4.3211593 19.6112928,4.3211593 C18.812674,4.3211593 18.074,4.50653952 17.4285304,4.87653393 C15.1862099,6.16347099 14.9398564,8.93919506 14.7190276,11.3786302 C14.6339448,12.320852 14.4981989,13.8850934 14.2178122,14.3313082 C13.7676464,14.6086124 12.1878122,14.7434344 11.2368177,14.8273151 C8.76516022,15.0460178 5.97096133,15.2899997 4.67151381,17.5107321 C3.38018785,19.7146118 4.55239779,22.221075 5.58886188,24.4333811 C5.99648619,25.3081919 6.67560221,26.754847 6.65858564,27.2849425 C6.39560221,27.7392007 5.13869613,28.6055851 4.3741105,29.1352976 C2.32709392,30.5570566 7.73480665e-05,32.1722392 7.73480665e-05,34.7882452 C7.73480665e-05,37.4042512 2.32709392,39.0190508 4.3741105,40.4408099 C5.13869613,40.9705223 6.39560221,41.8453331 6.65858564,42.2911649 C6.67560221,42.8212604 5.99648619,44.2763419 5.58886188,45.1511527 C4.55239779,47.3634588 3.38018785,49.8614956 4.67151381,52.0653753 C5.97096133,54.2945341 8.76516022,54.5385159 11.2368177,54.7487923 C12.1878122,54.833056 13.7676464,54.9759213 14.2178122,55.2451823 C14.4981989,55.691014 14.6339448,57.2552554 14.7190276,58.1974772 C14.9398564,60.6453387 15.1862099,63.4126364 17.4285304,64.7079999 C18.074,65.0699509 18.812674,65.2633745 19.6112928,65.2633745 C21.2162652,65.2633745 22.8471492,64.5145763 24.4099669,63.7910572 C25.4205193,63.3287557 26.6607956,62.7565283 27.3058785,62.7396756 C27.7564309,63.0005101 28.6397459,64.2453153 29.1660994,64.9941135 C30.6016796,67.0298488 32.2321768,69.3260356 34.8736133,69.3260356 C37.5150497,69.3260356 39.1459337,67.0298488 40.5811271,64.9941135 C41.1333923,64.2204192 42.0507403,62.9246728 42.4413481,62.7396756 C43.0442762,62.7396756 44.3692486,63.3452254 45.3376464,63.7910572 C46.9089724,64.5145763 48.5309613,65.2633745 50.1363204,65.2633745 C50.9430608,65.2633745 51.6736133,65.0699509 52.3190829,64.7079999 C54.5699116,63.4126364 54.8162652,60.6453387 55.0285856,58.1974772 C55.1132818,57.2552554 55.2494144,55.691014 55.5294144,55.2451823 C55.9795801,54.9759213 57.5594144,54.833056 58.5107956,54.7487923 C60.982453,54.5385159 63.7766519,54.2945341 65.0760994,52.0653753 C66.3670387,49.8614956 65.1952155,47.3634588 64.1587514,45.1511527 C63.7511271,44.2763419 63.0716243,42.8212604 63.0971492,42.2911649 C63.352011,41.8453331 64.6089171,40.9705223 65.3735028,40.4408099" id="Fill-2" fill="#FFFFFF" mask="url(#mask-2)"></path>
                </g>
            </g>
        </g>
    </g>
</svg>