<?xml version="1.0" encoding="utf-8"?>
<!-- Generator: Avocode 2.6.0 - http://avocode.com -->
<svg height="40" width="40" xmlns:xlink="http://www.w3.org/1999/xlink" xmlns="http://www.w3.org/2000/svg" viewBox="0 0 40 40">
    <path fill="#e7e7e7" fill-rule="evenodd" d="M 20 0 C 8.95 0 0 8.95 0 20 C 0 31.05 8.95 40 20 40 C 31.05 40 40 31.05 40 20 C 40 8.95 31.05 0 20 0 L 20 0 Z M 30.11 16.08 C 30.42 22.81 25.39 30.32 16.5 30.32 C 13.8 30.32 11.29 29.52 9.17 28.16 C 11.71 28.46 14.24 27.76 16.25 26.18 C 14.16 26.14 12.39 24.76 11.78 22.86 C 12.53 23 13.27 22.96 13.94 22.78 C 11.64 22.31 10.05 20.24 10.1 18.02 C 10.75 18.38 11.49 18.59 12.27 18.62 C 10.14 17.19 9.54 14.38 10.79 12.23 C 13.15 15.12 16.68 17.03 20.66 17.23 C 19.96 14.24 22.23 11.35 25.32 11.35 C 26.7 11.35 27.94 11.93 28.82 12.86 C 29.91 12.65 30.93 12.25 31.86 11.7 C 31.5 12.82 30.74 13.76 29.75 14.35 C 30.72 14.23 31.64 13.98 32.5 13.59 C 31.86 14.56 31.05 15.4 30.11 16.08 L 30.11 16.08 Z M 30.11 16.08" />
</svg>