<?xml version="1.0" encoding="utf-8"?>
<!-- Generator: Avocode 2.6.0 - http://avocode.com -->
<svg height="40" width="40" xmlns:xlink="http://www.w3.org/1999/xlink" xmlns="http://www.w3.org/2000/svg" viewBox="0 0 40 40">
    <path fill="#e7e7e7" fill-rule="evenodd" d="M 20 0 C 8.95 0 0 8.95 0 20 C 0 31.05 8.95 40 20 40 C 31.05 40 40 31.05 40 20 C 40 8.95 31.05 0 20 0 L 20 0 Z M 29.7 19.03 C 27.52 23.68 22.26 30.02 18.94 30.02 C 15.66 30.02 15.19 23.04 13.4 18.38 C 12.52 16.1 11.95 16.62 10.3 17.78 L 9.29 16.48 C 11.7 14.36 14.11 11.9 15.59 11.77 C 17.25 11.61 18.28 12.75 18.66 15.19 C 19.17 18.39 19.88 23.37 21.12 23.37 C 22.08 23.37 24.46 19.42 24.58 18.01 C 24.79 15.95 23.06 15.88 21.55 16.53 C 23.94 8.71 33.86 10.15 29.7 19.03 L 29.7 19.03 Z M 29.7 19.03" />
</svg>