<?xml version="1.0" encoding="UTF-8" standalone="no"?>
<svg width="988px" height="633px" viewBox="0 0 988 633" version="1.1" xmlns="http://www.w3.org/2000/svg" xmlns:xlink="http://www.w3.org/1999/xlink">
    <!-- Generator: Sketch 3.7.1 (28215) - http://www.bohemiancoding.com/sketch -->
    <title>Page 1</title>
    <desc>Created with Sketch.</desc>
    <defs>
        <polygon id="path-1" points="0 632.350611 987.272548 632.350611 987.272548 0.0201455368 0 0.0201455368"></polygon>
    </defs>
    <g id="Page-1" stroke="none" stroke-width="1" fill="none" fill-rule="evenodd">
        <g id="Home_page" transform="translate(-226.000000, -1557.000000)">
            <g id="Page-1" transform="translate(226.000000, 1557.000000)">
                <polygon id="Fill-1" fill="#000095" points="249.429461 16.6557465 215.089242 152.572678 180.737379 16.6557465 125.145584 16.6557465 89.6525405 152.572678 57.90909 16.6557465 -5.68434189e-14 16.6557465 56.1623851 199.139831 119.323235 199.139831 153.081218 68.1602519 184.824669 199.139831 247.973873 199.139831 306.476843 16.6557465"></polygon>
                <g id="Group-22" transform="translate(-0.000000, 0.039575)">
                    <path d="M457.316456,129.831761 C457.316456,107.124597 444.798405,88.493078 418.609476,88.493078 C392.408902,88.493078 380.181968,107.124597 380.181968,129.831761 C380.181968,152.52728 392.70002,171.158799 418.888948,171.158799 C445.089522,171.158799 457.316456,152.52728 457.316456,129.831761 L457.316456,129.831761 Z M509.112079,129.831761 C509.112079,182.500736 465.758863,202.587843 418.888948,202.587843 C372.042323,202.587843 328.386345,182.500736 328.386345,129.831761 C328.386345,77.1511408 371.739561,57.0640344 418.609476,57.0640344 C465.456101,57.0640344 509.112079,77.1511408 509.112079,129.831761 L509.112079,129.831761 Z" id="Fill-2" fill="#000095"></path>
                    <path d="M549.040589,199.096762 L549.040589,60.5597731 L580.76075,60.5597731 L592.405449,103.051281 C596.772212,75.6862376 609.290264,57.0663633 638.972602,57.0663633 C645.668304,57.0663633 654.099067,58.2308333 660.212534,59.6864207 L657.010242,100.140106 C651.770127,98.6845189 643.909955,96.6466965 636.632018,96.6466965 C616.556556,96.6466965 605.202974,101.886811 599.380624,108.873631 L599.380624,199.096762 L549.040589,199.096762 Z" id="Fill-4" fill="#000095"></path>
                    <g id="Group-8" transform="translate(689.353793, 0.000000)" fill="#000095">
                        <path d="M116.416318,199.096762 L75.3803978,144.972199 L50.9265291,168.249953 L50.9265291,199.096762 L0.586493661,199.096762 L0.586493661,4.09462585 L14.5484882,4.09462585 C28.813245,4.09462585 41.6107696,2.63903843 50.9265291,0.0189810668 L50.9265291,126.049562 L115.251848,60.5597731 L169.970291,60.5597731 L111.758439,115.860451 L173.452056,199.096762 L116.416318,199.096762 Z" id="Fill-6"></path>
                    </g>
                    <path d="M87.0173451,551.929988 C56.7527714,551.929988 26.1854355,544.069816 8.73003113,530.690057 L27.3615501,501.578308 C39.8679573,511.76742 63.739591,521.08318 89.0668122,521.08318 C109.433391,521.08318 115.837976,516.716418 115.837976,510.60295 C115.837976,504.489483 107.686686,500.996073 92.560222,498.376016 L64.6129435,493.438663 C37.5390174,488.489666 12.8056759,477.997792 12.8056759,452.099981 C12.8056759,427.063877 33.7661348,406.40618 85.5617576,406.40618 C117.584681,406.40618 142.318022,414.55747 156.873897,424.455464 L139.127375,452.69386 C128.356028,443.960336 106.231099,437.252989 85.5617576,437.252989 C73.3348233,437.252989 60.2461812,439.290811 60.2461812,447.442101 C60.2461812,454.149448 66.9302386,456.75786 80.0305254,459.0868 L114.673506,465.200267 C144.646962,470.440382 166.189656,482.364554 166.189656,505.945071 C166.189656,531.842882 144.064727,551.929988 87.0173451,551.929988" id="Fill-9" fill="#000095"></path>
                    <path d="M368.502334,469.859312 L368.502334,548.437743 L318.150654,548.437743 L318.150654,475.087782 C318.150654,453.265615 308.834895,438.430268 288.468315,438.430268 C272.747971,438.430268 261.685507,447.746028 254.989805,462.290257 L254.989805,548.437743 L204.649769,548.437743 L204.649769,353.435607 L220.649586,353.435607 C233.167638,353.435607 245.976807,351.98002 254.989805,349.359962 L254.989805,445.405443 C261.988269,423.571632 278.279203,406.407345 306.797072,406.407345 C338.808351,406.407345 368.502334,423.874394 368.502334,469.859312" id="Fill-11" fill="#000095"></path>
                    <path d="M533.291133,479.172742 C533.291133,456.465578 520.773081,437.834059 494.584152,437.834059 C468.383579,437.834059 456.156644,456.465578 456.156644,479.172742 C456.156644,501.868261 468.674696,520.49978 494.863625,520.49978 C521.064199,520.49978 533.291133,501.868261 533.291133,479.172742 M585.086756,479.172742 C585.086756,531.841718 541.73354,551.928824 494.863625,551.928824 C448.016999,551.928824 404.361022,531.841718 404.361022,479.172742 C404.361022,426.492122 447.714237,406.405016 494.584152,406.405016 C541.430778,406.405016 585.086756,426.492122 585.086756,479.172742" id="Fill-13" fill="#000095"></path>
                    <path d="M744.055534,479.456873 C744.055534,456.458592 732.690307,438.432597 710.29755,438.432597 C694.577206,438.432597 683.514742,445.990007 675.363452,459.090294 L675.363452,496.05057 C680.021332,505.366329 691.374914,519.922203 709.703671,519.922203 C732.119717,519.922203 744.055534,502.164037 744.055534,479.456873 M795.851157,480.039108 C795.851157,527.479613 764.130996,551.933482 728.626307,551.933482 C700.108438,551.933482 681.185802,534.175315 675.363452,512.644266 L675.363452,598.791752 L625.011772,598.791752 L625.011772,409.891439 L656.731933,409.891439 L667.794398,451.230122 C674.198982,427.66125 689.616564,406.409674 728.044072,406.409674 C770.244463,406.409674 795.851157,434.345307 795.851157,480.039108" id="Fill-15" fill="#000095"></path>
                    <path d="M904.761701,551.929988 C874.497127,551.929988 843.929792,544.069816 826.474387,530.690057 L845.105906,501.578308 C857.612313,511.76742 881.483947,521.08318 906.811168,521.08318 C927.177747,521.08318 933.582332,516.716418 933.582332,510.60295 C933.582332,504.489483 925.431043,500.996073 910.304578,498.376016 L882.3573,493.438663 C855.283373,488.489666 830.550032,477.997792 830.550032,452.099981 C830.550032,427.063877 851.510491,406.40618 903.306114,406.40618 C935.329037,406.40618 960.062379,414.55747 974.618253,424.455464 L956.871731,452.69386 C946.100384,443.960336 923.975455,437.252989 903.306114,437.252989 C891.079179,437.252989 877.990537,439.290811 877.990537,447.442101 C877.990537,454.149448 884.674595,456.75786 897.774882,459.0868 L932.417862,465.200267 C962.391318,470.440382 983.934012,482.364554 983.934012,505.945071 C983.934012,531.842882 961.809083,551.929988 904.761701,551.929988" id="Fill-17" fill="#000095"></path>
                    <mask id="mask-2" fill="white">
                        <use xlink:href="#path-1"></use>
                    </mask>
                    <g id="Clip-20"></g>
                    <polygon id="Fill-19" fill="#000095" mask="url(#mask-2)" points="18.6897425 289.40257 939.564214 289.40257 939.564214 254.468472 18.6897425 254.468472"></polygon>
                    <polygon id="Fill-21" fill="#000095" mask="url(#mask-2)" points="18.6780978 632.350611 987.272548 632.350611 987.272548 596.531516 18.6780978 596.531516"></polygon>
                </g>
            </g>
        </g>
    </g>
</svg>